<svg 
  class="dn" 
  height="0" 
  version="1.1" 
  width="0"
  xmlns="http://www.w3.org/2000/svg">
  <!-- Login cancel icon-->
  <g id="login-cancel">
    <path fill-rule="evenodd" clip-rule="evenodd" d="M12 3.137a9.25 9.25 0 1 0 0 18.5 9.25 9.25 0 0 0 0-18.5zm-10.75 9.25C1.25 6.45 6.063 1.637 12 1.637s10.75 4.813 10.75 10.75-4.813 10.75-10.75 10.75-10.75-4.813-10.75-10.75zm7.22-3.53a.75.75 0 0 1 1.06 0l2.47 2.47 2.47-2.47a.75.75 0 1 1 1.06 1.06l-2.47 2.47 2.47 2.47a.75.75 0 1 1-1.06 1.06L12 13.447l-2.47 2.47a.75.75 0 0 1-1.06-1.06l2.47-2.47-2.47-2.47a.75.75 0 0 1 0-1.06z" fill="#222"/>
  </g>
</svg>